<svg width="16" height="18" viewBox="0 0 16 18" fill="none" xmlns="http://www.w3.org/2000/svg">
<path d="M12.9156 12.1871V17.892H5.74398V15.8344H4.69042C3.22736 15.8344 2.04048 14.648 2.04048 13.183V11.3045H1.13936C0.99551 11.3044 0.85757 11.2473 0.755695 11.1457C0.65382 11.0442 0.596298 10.9064 0.595703 10.7626C0.595703 10.6872 0.609203 10.6158 0.636203 10.5519L2.04048 7.01577C2.04048 7.01577 2.18561 5.55102 2.3178 4.9902C2.90252 2.46711 5.71501 0.177734 8.76489 0.177734C12.4751 0.177734 15.4842 3.18711 15.4842 6.90073C15.4842 9.04527 14.4796 10.9566 12.9156 12.1871ZM3.69142 6.85545C3.49315 6.85597 3.30316 6.93507 3.16309 7.0754C3.02302 7.21573 2.94429 7.40587 2.94414 7.60414C2.94369 7.80288 3.02214 7.99368 3.16225 8.13463C3.30236 8.27559 3.49268 8.35518 3.69142 8.35592C3.79022 8.356 3.88807 8.33661 3.97937 8.29887C4.07068 8.26113 4.15366 8.20577 4.22357 8.13596C4.29349 8.06615 4.34897 7.98326 4.38684 7.89201C4.42472 7.80076 4.44425 7.70294 4.44433 7.60414C4.44351 7.4051 4.36379 7.2145 4.22265 7.07415C4.08151 6.9338 3.89047 6.85515 3.69142 6.85545ZM10.2021 5.2242C10.2021 5.41188 10.2766 5.59186 10.4093 5.72457C10.542 5.85728 10.722 5.93183 10.9097 5.93183C11.0974 5.93183 11.2774 5.85728 11.4101 5.72457C11.5428 5.59186 11.6173 5.41188 11.6173 5.2242C11.6173 5.03653 11.5428 4.85654 11.4101 4.72384C11.2774 4.59113 11.0974 4.51658 10.9097 4.51658C10.722 4.51658 10.542 4.59113 10.4093 4.72384C10.2766 4.85654 10.2021 5.03653 10.2021 5.2242ZM4.85355 4.45583C4.85358 4.54902 4.87199 4.6413 4.9077 4.72738C4.94342 4.81346 4.99575 4.89166 5.0617 4.9575C5.12765 5.02335 5.20593 5.07556 5.29207 5.11114C5.3782 5.14671 5.47051 5.16497 5.5637 5.16486C5.75197 5.16486 5.93253 5.09007 6.06566 4.95694C6.19879 4.82381 6.27358 4.64325 6.27358 4.45498C6.27358 4.26671 6.19879 4.08615 6.06566 3.95303C5.93253 3.8199 5.75197 3.74511 5.5637 3.74511C5.4704 3.74511 5.378 3.7635 5.29181 3.79922C5.20561 3.83494 5.1273 3.8873 5.06135 3.95331C4.9954 4.01931 4.9431 4.09767 4.90744 4.18389C4.87179 4.27012 4.85347 4.36252 4.85355 4.45583ZM13.2534 6.01198L14.2819 5.83508V4.84508L13.291 4.67436C13.244 4.49559 13.177 4.32266 13.0914 4.15883L13.6918 3.30608L12.9952 2.60689L12.172 3.18683C12.0478 3.11318 11.9175 3.0506 11.7824 2.9998C11.7439 2.98573 11.7054 2.97533 11.6668 2.96352L11.4874 1.93555H10.4977L10.3306 2.92555C10.1507 2.97225 9.97682 3.03944 9.81226 3.1258L8.96064 2.52392L8.25836 3.22452L8.84167 4.04436C8.76729 4.16938 8.70441 4.30088 8.6538 4.43727C8.63889 4.4758 8.62933 4.51433 8.61695 4.55286L7.7673 4.69855V4.22661L7.11845 4.11523C7.08854 4.00266 7.04589 3.89386 6.99133 3.79095L7.38901 3.22902L6.92945 2.7703L6.38833 3.15195C6.30887 3.10429 6.22551 3.06346 6.13914 3.02989C6.11636 3.02145 6.09273 3.01948 6.06939 3.01217L5.95183 2.3352H5.3058L5.19273 2.98489C5.07883 3.01498 4.97055 3.05942 4.86648 3.1137L4.30342 2.71742L3.84611 3.17614L4.22861 3.71727C4.18078 3.79631 4.14021 3.87953 4.10739 3.96589C4.09867 3.98923 4.09333 4.0123 4.08602 4.03648L3.4127 4.15208V4.80148L4.06605 4.91342C4.09586 5.02508 4.13692 5.13336 4.1898 5.2363L3.79239 5.7988L4.25027 6.25808L4.79336 5.87558C4.87239 5.92198 4.95423 5.96502 5.04311 5.9982C5.06589 6.00692 5.08952 6.00861 5.1123 6.01648L5.22986 6.69345L5.87561 6.69289L5.98895 6.04405C6.10169 6.01345 6.21073 5.97053 6.31408 5.91608L6.87489 6.31152L7.33445 5.85308L6.95252 5.31195C6.99836 5.23348 7.04083 5.15277 7.07317 5.06473C7.08245 5.04139 7.08414 5.01692 7.0923 4.99302L7.59067 4.90695V5.71948L8.57983 5.88964C8.62651 6.0702 8.69458 6.24345 8.78064 6.40798L8.18017 7.25764L8.87823 7.95767L9.70089 7.37773C9.8238 7.44945 9.95233 7.51302 10.0907 7.56392C10.1292 7.57855 10.1678 7.58839 10.2063 7.60077L10.3857 8.6293H11.2447L11.1738 9.04133C11.0498 9.06945 10.9328 9.11839 10.8225 9.18027L10.4119 8.89002L10.0899 9.21233L10.3677 9.6058C10.3199 9.68173 10.2783 9.76245 10.2465 9.84964C10.2339 9.88452 10.2288 9.91939 10.219 9.95427L9.72058 10.0395V10.4937L10.1976 10.5764C10.2251 10.7013 10.2741 10.818 10.3365 10.9291L10.0463 11.3391L10.3672 11.6623L10.7606 11.3833C10.8366 11.4317 10.9179 11.4733 11.0053 11.5056C11.0402 11.5186 11.0756 11.5234 11.1114 11.5332L11.1932 12.029H11.6491L11.7324 11.554C11.8572 11.5265 11.9742 11.4775 12.085 11.4151L12.4934 11.705L12.8166 11.3825L12.5387 10.9912C12.5876 10.9147 12.6298 10.8332 12.6625 10.7451C12.6745 10.7108 12.6796 10.676 12.6895 10.6411L13.1836 10.5559V10.1L12.7091 10.0187C12.6806 9.89512 12.6338 9.77653 12.5702 9.66683L12.8596 9.25592L12.537 8.93389L12.1441 9.21008C12.0674 9.1609 11.9856 9.11998 11.9003 9.08802C11.8668 9.07592 11.8325 9.07086 11.7982 9.06186L11.7113 8.56602H11.3856L11.5428 7.63845C11.7221 7.59216 11.8955 7.52524 12.0595 7.43905L12.9122 8.04092L13.6111 7.34173L13.03 6.51908C13.1023 6.39589 13.1665 6.2668 13.2179 6.12842C13.2323 6.08961 13.2421 6.05108 13.2545 6.01255L13.2534 6.01198ZM10.7432 10.3275C10.7434 10.5158 10.8184 10.6963 10.9517 10.8294C11.085 10.9625 11.2656 11.0372 11.4539 11.0371C11.5469 11.0369 11.6389 11.0184 11.7248 10.9826C11.8106 10.9469 11.8886 10.8945 11.9542 10.8286C12.0198 10.7627 12.0718 10.6846 12.1072 10.5986C12.1425 10.5126 12.1606 10.4205 12.1604 10.3275C12.1606 10.2345 12.1425 10.1425 12.1071 10.0565C12.0717 9.97057 12.0197 9.89245 11.9541 9.82661C11.8884 9.76076 11.8105 9.70849 11.7247 9.67277C11.6389 9.63706 11.5469 9.6186 11.4539 9.61845C11.2657 9.6183 11.0851 9.6929 10.9518 9.82586C10.8185 9.95881 10.7435 10.1392 10.7432 10.3275Z" fill="#828282" fill-opacity="0.6"/>
</svg>
