<svg width="18" height="15" viewBox="0 0 18 15" fill="none" xmlns="http://www.w3.org/2000/svg">
<path d="M5.85003 9.89998C5.78281 9.89998 5.71559 9.90982 5.65147 9.93063C5.28697 10.049 4.90363 10.125 4.50003 10.125C4.09644 10.125 3.7131 10.049 3.34832 9.93063C3.28419 9.90982 3.21726 9.89998 3.15004 9.89998C1.4046 9.89998 -0.00923579 11.3197 4.54352e-05 13.0674C0.00398293 13.806 0.6112 14.4 1.35004 14.4H7.65003C8.38887 14.4 8.99609 13.806 9.00002 13.0674C9.0093 11.3197 7.59546 9.89998 5.85003 9.89998ZM4.50003 8.99998C5.99122 8.99998 7.20003 7.79117 7.20003 6.29998C7.20003 4.8088 5.99122 3.59999 4.50003 3.59999C3.00885 3.59999 1.80004 4.8088 1.80004 6.29998C1.80004 7.79117 3.00885 8.99998 4.50003 8.99998ZM16.65 0H5.85003C5.10556 0 4.50003 0.62578 4.50003 1.39472V2.69999C5.15872 2.69999 5.76847 2.89068 6.30003 3.20062V1.8H16.2V9.89998H14.4V8.09998H10.8V9.89998H8.65577C9.19296 10.3694 9.58727 10.9893 9.77205 11.7H16.65C17.3945 11.7 18 11.0742 18 10.3053V1.39472C18 0.62578 17.3945 0 16.65 0Z" fill="#828282" fill-opacity="0.6"/>
</svg>
