<svg width="18" height="18" viewBox="0 0 18 18" fill="none" xmlns="http://www.w3.org/2000/svg">
<path d="M3.99172 0V2.82028H5.47284V0H3.99172ZM12.5298 0V2.82028H14.0087V0H12.5298ZM0.964844 1.35552V5.30391H17.0378V1.35552H15.0677V3.8778H11.4709V1.35552H6.52962V3.8778H2.93496V1.35552H0.964844ZM0.964844 6.34062V18H17.0378V6.3406L0.964844 6.34062ZM7.2787 9.03456C8.09686 9.04261 8.87113 9.43571 9.17896 10.1671C9.32373 10.6041 9.40081 11.0698 9.22057 11.4766C8.99494 11.9458 8.53752 12.1901 8.08875 12.3475C8.93098 12.5673 9.48528 13.0969 9.49033 13.9572C9.47676 14.5473 9.20059 15.07 8.78359 15.4116C8.34021 15.7621 7.80409 15.9579 7.2787 15.9615C5.79708 15.9615 5.05593 15.2935 5.05593 13.9572H6.36388C6.39168 14.5198 6.65769 14.9477 7.20514 14.9553C7.90108 14.9079 8.17665 14.4506 8.18238 13.8651C8.18206 13.5114 8.05296 13.149 7.74541 13.0127C7.34866 12.8478 6.90576 12.8674 6.51919 12.867V11.8496C7.1511 11.8628 8.01913 11.7513 8.02558 10.998C8.00101 10.4439 7.77421 10.0485 7.23634 10.0415C6.6634 10.0761 6.34899 10.4018 6.34308 10.9162H5.05593C5.08387 9.61912 6.1494 9.04035 7.2787 9.03456ZM11.7934 9.16016H12.946V15.8382H11.699V10.4681C11.2213 10.8766 10.6925 11.1675 10.1109 11.3406V10.1983C10.7894 9.93524 11.3503 9.58944 11.7934 9.16016Z" fill="#828282" fill-opacity="0.6"/>
</svg>
