<svg width="18" height="18" viewBox="0 0 18 18" fill="none" xmlns="http://www.w3.org/2000/svg">
<path d="M8.1 11.7H8.0541C7.82758 11.7 7.61033 11.61 7.45016 11.4498C7.28999 11.2897 7.2 11.0724 7.2 10.8459C7.2 10.6072 7.10518 10.3783 6.9364 10.2095C6.76761 10.0407 6.53869 9.9459 6.3 9.9459C6.06131 9.9459 5.83239 10.0407 5.6636 10.2095C5.49482 10.3783 5.4 10.6072 5.4 10.8459C5.4 11.5498 5.67963 12.2249 6.17737 12.7226C6.67511 13.2204 7.35019 13.5 8.0541 13.5H8.1V14.4C8.1 14.6387 8.19482 14.8676 8.3636 15.0364C8.53239 15.2052 8.7613 15.3 9 15.3C9.23869 15.3 9.46761 15.2052 9.6364 15.0364C9.80518 14.8676 9.9 14.6387 9.9 14.4V13.5C10.6161 13.5 11.3028 13.2155 11.8092 12.7092C12.3155 12.2028 12.6 11.5161 12.6 10.8C12.6 10.0839 12.3155 9.39716 11.8092 8.89081C11.3028 8.38446 10.6161 8.1 9.9 8.1V6.3H9.9198C10.4058 6.3 10.8 6.6942 10.8 7.1802C10.8 7.4189 10.8948 7.64781 11.0636 7.8166C11.2324 7.98538 11.4613 8.0802 11.7 8.0802C11.9387 8.0802 12.1676 7.98538 12.3364 7.8166C12.5052 7.64781 12.6 7.4189 12.6 7.1802C12.6 6.46937 12.3176 5.78765 11.815 5.28501C11.3124 4.78238 10.6306 4.5 9.9198 4.5H9.9V3.6C9.9 3.3613 9.80518 3.13239 9.6364 2.9636C9.46761 2.79482 9.23869 2.7 9 2.7C8.7613 2.7 8.53239 2.79482 8.3636 2.9636C8.19482 3.13239 8.1 3.3613 8.1 3.6V4.5C7.38392 4.5 6.69716 4.78446 6.19081 5.29081C5.68446 5.79716 5.4 6.48392 5.4 7.2C5.4 7.91608 5.68446 8.60284 6.19081 9.10919C6.69716 9.61554 7.38392 9.9 8.1 9.9V11.7ZM9.9 11.7V9.9C10.1387 9.9 10.3676 9.99482 10.5364 10.1636C10.7052 10.3324 10.8 10.5613 10.8 10.8C10.8 11.0387 10.7052 11.2676 10.5364 11.4364C10.3676 11.6052 10.1387 11.7 9.9 11.7ZM8.1 6.3V8.1C7.8613 8.1 7.63239 8.00518 7.4636 7.8364C7.29482 7.66761 7.2 7.43869 7.2 7.2C7.2 6.96131 7.29482 6.73239 7.4636 6.5636C7.63239 6.39482 7.8613 6.3 8.1 6.3ZM9 18C4.0293 18 0 13.9707 0 9C0 4.0293 4.0293 0 9 0C13.9707 0 18 4.0293 18 9C18 13.9707 13.9707 18 9 18Z" fill="#828282" fill-opacity="0.6"/>
</svg>
