<svg width="19" height="19" viewBox="0 0 19 19" fill="none" xmlns="http://www.w3.org/2000/svg">
<path d="M9.245 0C7.57175 0 6.0249 0.412293 4.60444 1.23688C3.18399 2.06147 2.06147 3.18399 1.23688 4.60444C0.412293 6.0249 0 7.57175 0 9.245C0 10.9182 0.412293 12.4651 1.23688 13.8856C2.06147 15.306 3.18399 16.4285 4.60444 17.2531C6.0249 18.0777 7.57175 18.49 9.245 18.49C10.4969 18.49 11.6947 18.2462 12.8383 17.7587C13.9819 17.2712 14.9659 16.6151 15.7905 15.7905C16.6151 14.9659 17.2712 13.9819 17.7587 12.8383C18.2462 11.6947 18.49 10.4969 18.49 9.245C18.49 7.99307 18.2462 6.79532 17.7587 5.65173C17.2712 4.50814 16.6151 3.52405 15.7905 2.69947C14.9659 1.87488 13.9819 1.21882 12.8383 0.731294C11.6947 0.243765 10.4969 0 9.245 0ZM9.245 17.3524C8.36624 17.3524 7.51457 17.217 6.68999 16.9462C5.8654 16.6753 5.12207 16.2871 4.45999 15.7815C3.79791 15.2759 3.21709 14.6921 2.71752 14.03C2.21796 13.3679 1.83275 12.6246 1.5619 11.8C1.29105 10.9754 1.15562 10.1238 1.15562 9.245C1.15562 8.14956 1.3693 7.10228 1.79664 6.10314C2.22398 5.10401 2.79878 4.24331 3.52104 3.52104C4.24331 2.79878 5.10401 2.22398 6.10314 1.79664C7.10228 1.3693 8.14956 1.15562 9.245 1.15562C10.3404 1.15562 11.3877 1.3693 12.3869 1.79664C13.386 2.22398 14.2467 2.79878 14.969 3.52104C15.6912 4.24331 16.266 5.10401 16.6934 6.10314C17.1207 7.10228 17.3344 8.14956 17.3344 9.245C17.3344 10.3404 17.1207 11.3877 16.6934 12.3869C16.266 13.386 15.6912 14.2497 14.969 14.978C14.2467 15.7063 13.386 16.2841 12.3869 16.7114C11.3877 17.1388 10.3404 17.3524 9.245 17.3524ZM8.39634 14.4453H9.84087V12.9827H8.39634V14.4453ZM9.22694 4.04469C9.05841 4.04469 8.8959 4.05372 8.73941 4.07177C8.58292 4.08983 8.43245 4.11691 8.288 4.15303C8.14355 4.18914 8.00511 4.23428 7.8727 4.28845C7.74028 4.34262 7.61087 4.40582 7.48448 4.47805C7.35808 4.55027 7.24071 4.62852 7.13237 4.71278C6.87958 4.92946 6.68096 5.23944 6.5365 5.6427C6.39205 6.04597 6.32584 6.44622 6.33788 6.84347L6.35594 6.89764H7.69213C7.69213 6.64484 7.73125 6.38603 7.8095 6.1212C7.88774 5.85637 7.99909 5.66979 8.14355 5.56145C8.288 5.44107 8.45051 5.35078 8.63107 5.2906C8.81164 5.23041 9.01026 5.20031 9.22694 5.20031C9.47974 5.20031 9.69943 5.23643 9.88601 5.30865C10.0726 5.38088 10.2321 5.4832 10.3645 5.61562C10.6293 5.88045 10.7618 6.25964 10.7618 6.75318C10.7618 6.96986 10.7377 7.16548 10.6895 7.34002C10.6414 7.51457 10.5692 7.68009 10.4729 7.83658C10.2682 8.12549 9.93717 8.54681 9.47974 9.10055C8.99823 9.53391 8.70029 9.883 8.58593 10.1478C8.47157 10.4127 8.41439 10.8821 8.41439 11.5562H9.80476C9.80476 11.1349 9.82883 10.8219 9.87698 10.6173C9.90106 10.521 9.95222 10.4157 10.0305 10.3013C10.1087 10.187 10.214 10.0636 10.3465 9.93115C10.6113 9.66632 10.8551 9.4045 11.0777 9.14569C11.3004 8.88688 11.4961 8.63709 11.6646 8.39634C11.9896 7.89075 12.1521 7.331 12.1521 6.71707C12.1521 5.87443 11.8963 5.21837 11.3847 4.7489C10.8731 4.27942 10.1539 4.04469 9.22694 4.04469Z" fill="black" fill-opacity="0.7"/>
</svg>
