<svg width="18" height="16" viewBox="0 0 18 16" fill="none" xmlns="http://www.w3.org/2000/svg">
<path d="M3.71268 15.0659C3.59303 15.1699 3.44618 15.2377 3.28938 15.2612C3.13257 15.2847 2.97231 15.2629 2.82742 15.1985C2.68253 15.1341 2.55902 15.0297 2.47138 14.8976C2.38375 14.7655 2.33563 14.6111 2.33268 14.4525V12.5834C1.89065 12.5834 1.46673 12.4078 1.15417 12.0952C0.84161 11.7827 0.666016 11.3587 0.666016 10.9167V5.08337C0.666016 4.64135 0.84161 4.21742 1.15417 3.90486C1.46673 3.5923 1.89065 3.41671 2.33268 3.41671H11.4993C11.9414 3.41671 12.3653 3.5923 12.6779 3.90486C12.9904 4.21742 13.166 4.64135 13.166 5.08337V10.9167C13.166 11.3587 12.9904 11.7827 12.6779 12.0952C12.3653 12.4078 11.9414 12.5834 11.4993 12.5834H7.33518L3.71268 15.0659ZM13.9993 8.43087C13.9967 8.53336 13.9967 8.63589 13.9993 8.73837V8.43004C14.0035 8.34087 14.0043 7.22421 14.0027 5.08087C14.002 4.41827 13.7383 3.78302 13.2696 3.31472C12.8008 2.84642 12.1653 2.58337 11.5027 2.58337H4.83268V1.75004C4.83268 1.30801 5.00828 0.88409 5.32084 0.571529C5.6334 0.258969 6.05732 0.083374 6.49935 0.083374H15.666C16.108 0.083374 16.532 0.258969 16.8445 0.571529C17.1571 0.88409 17.3327 1.30801 17.3327 1.75004V7.58337C17.3327 8.0254 17.1571 8.44932 16.8445 8.76188C16.532 9.07445 16.108 9.25004 15.666 9.25004V11.1192C15.6631 11.2777 15.6149 11.4321 15.5273 11.5643C15.4397 11.6964 15.3162 11.8008 15.1713 11.8652C15.0264 11.9296 14.8661 11.9513 14.7093 11.9278C14.5525 11.9043 14.4057 11.8366 14.286 11.7325L13.9993 11.5359V8.43087Z" fill="black" fill-opacity="0.7"/>
</svg>
