<svg width="15" height="18" viewBox="0 0 15 18" fill="none" xmlns="http://www.w3.org/2000/svg">
<path d="M14.4 5.4L9 0H1.8C1.32261 0 0.864773 0.189642 0.527208 0.527208C0.189642 0.864773 0 1.32261 0 1.8V16.2C0 16.6774 0.189642 17.1352 0.527208 17.4728C0.864773 17.8104 1.32261 18 1.8 18H12.6C13.0774 18 13.5352 17.8104 13.8728 17.4728C14.2104 17.1352 14.4 16.6774 14.4 16.2V5.4ZM4.5 15.3H2.7V7.2H4.5V15.3ZM8.1 15.3H6.3V9.9H8.1V15.3ZM11.7 15.3H9.9V12.6H11.7V15.3ZM9 6.3H8.1V1.8L12.6 6.3H9Z" fill="#828282" fill-opacity="0.6"/>
</svg>
