<svg width="18" height="24" viewBox="0 0 18 24" fill="none" xmlns="http://www.w3.org/2000/svg">
<path d="M5.4 0.9C5.4 0.661305 5.30518 0.432387 5.1364 0.263604C4.96761 0.0948211 4.73869 0 4.5 0C4.2613 0 4.03239 0.0948211 3.8636 0.263604C3.69482 0.432387 3.6 0.661305 3.6 0.9V1.8H2.7C1.98392 1.8 1.29716 2.08446 0.790812 2.59081C0.284464 3.09716 0 3.78392 0 4.5V20.7C0 21.4161 0.284464 22.1028 0.790812 22.6092C1.29716 23.1155 1.98392 23.4 2.7 23.4H10.35V18.45C10.35 17.8533 10.5871 17.281 11.009 16.859C11.431 16.4371 12.0033 16.2 12.6 16.2H18V4.5C18 3.78392 17.7155 3.09716 17.2092 2.59081C16.7028 2.08446 16.0161 1.8 15.3 1.8H14.4V0.9C14.4 0.661305 14.3052 0.432387 14.1364 0.263604C13.9676 0.0948211 13.7387 0 13.5 0C13.2613 0 13.0324 0.0948211 12.8636 0.263604C12.6948 0.432387 12.6 0.661305 12.6 0.9V1.8H9.9V0.9C9.9 0.661305 9.80518 0.432387 9.6364 0.263604C9.46761 0.0948211 9.23869 0 9 0C8.7613 0 8.53239 0.0948211 8.3636 0.263604C8.19482 0.432387 8.1 0.661305 8.1 0.9V1.8H5.4V0.9ZM5.4 7.2H12.6C12.8387 7.2 13.0676 7.29482 13.2364 7.4636C13.4052 7.63239 13.5 7.8613 13.5 8.1C13.5 8.33869 13.4052 8.56761 13.2364 8.7364C13.0676 8.90518 12.8387 9 12.6 9H5.4C5.1613 9 4.93239 8.90518 4.7636 8.7364C4.59482 8.56761 4.5 8.33869 4.5 8.1C4.5 7.8613 4.59482 7.63239 4.7636 7.4636C4.93239 7.29482 5.1613 7.2 5.4 7.2ZM4.5 12.6C4.5 12.3613 4.59482 12.1324 4.7636 11.9636C4.93239 11.7948 5.1613 11.7 5.4 11.7H12.6C12.8387 11.7 13.0676 11.7948 13.2364 11.9636C13.4052 12.1324 13.5 12.3613 13.5 12.6C13.5 12.8387 13.4052 13.0676 13.2364 13.2364C13.0676 13.4052 12.8387 13.5 12.6 13.5H5.4C5.1613 13.5 4.93239 13.4052 4.7636 13.2364C4.59482 13.0676 4.5 12.8387 4.5 12.6ZM5.4 16.2H8.1C8.33869 16.2 8.56761 16.2948 8.7364 16.4636C8.90518 16.6324 9 16.8613 9 17.1C9 17.3387 8.90518 17.5676 8.7364 17.7364C8.56761 17.9052 8.33869 18 8.1 18H5.4C5.1613 18 4.93239 17.9052 4.7636 17.7364C4.59482 17.5676 4.5 17.3387 4.5 17.1C4.5 16.8613 4.59482 16.6324 4.7636 16.4636C4.93239 16.2948 5.1613 16.2 5.4 16.2ZM12.825 22.6908C12.6241 22.8746 12.3965 23.0269 12.15 23.1426V18.45C12.15 18.3307 12.1974 18.2162 12.2818 18.1318C12.3662 18.0474 12.4807 18 12.6 18H17.6976C17.5536 18.279 17.3601 18.5319 17.1243 18.7488L12.8241 22.6908H12.825Z" fill="#828282" fill-opacity="0.6"/>
</svg>
