<svg width="22" height="30" viewBox="0 0 22 30" fill="none" xmlns="http://www.w3.org/2000/svg">
<path d="M12.0625 27C10.5625 25.5 10.5625 23.25 12.0625 21.75C13.5625 20.25 15.8125 20.25 17.3125 21.75L18.4375 22.875L22 18.9375C20.6875 18.1875 19.5625 18.1875 18.25 18.1875C16.9375 18 15.625 17.625 15.625 16.5C15.625 15.375 17.125 15.75 18.25 13.6875C18.25 13.6875 23.3125 0 12.8125 0C2.5 0 7.5625 13.6875 7.5625 13.6875C8.6875 15.5625 10.1875 15.1875 10.1875 16.5C10.1875 17.8125 8.875 17.8125 7.5625 18C5.5 18.1875 3.625 17.8125 1.75 21.1875C0.625 23.25 0.0625 30 0.0625 30H15.0625L12.0625 27Z" fill="#828282" fill-opacity="0.6"/>
</svg>
